 <svg width="32" height="32" viewBox="0 0 32 32" fill="none" xmlns="http://www.w3.org/2000/svg">
    <path d="M24 2H8C4.68629 2 2 4.68629 2 8V24C2 27.3137 4.68629 30 8 30H24C27.3137 30 30 27.3137 30 24V8C30 4.68629 27.3137 2 24 2ZM16 24C12.6863 24 10 21.3137 10 18C10 14.6863 12.6863 12 16 12C19.3137 12 22 14.6863 22 18C22 21.3137 19.3137 24 16 24Z" fill="#E4405F" />
    <path d="M22 7.00001C22.5523 7.00001 23 6.5523 23 6.00001C23 5.44773 22.5523 5.00001 22 5.00001C21.4477 5.00001 21 5.44773 21 6.00001C21 6.5523 21.4477 7.00001 22 7.00001Z" fill="#E4405F" />
    <path d="M16 14C13.7909 14 12 15.7909 12 18C12 20.2091 13.7909 22 16 22C18.2091 22 20 20.2091 20 18C20 15.7909 18.2091 14 16 14Z" fill="#E4405F" />
    <path d="M25 9.00001C25.5523 9.00001 26 8.5523 26 8.00001C26 7.44773 25.5523 7.00001 25 7.00001C24.4477 7.00001 24 7.44773 24 8.00001C24 8.5523 24.4477 9.00001 25 9.00001Z" fill="#E4405F" />
  </svg>