  <svg xmlns="http://www.w3.org/2000/svg" width="32" height="32" viewBox="0 0 24 24">
    <path fill="#0077B5" d="M21.6,0H2.4C1.1,0,0,1.1,0,2.4v19.2C0,22.9,1.1,24,2.4,24h19.2c1.3,0,2.4-1.1,2.4-2.4V2.4C24,1.1,22.9,0,21.6,0z M7.9,20.4H4.5V9.9h3.4V20.4z M6.2,8.6H6.1c-1.1,0-1.8-0.8-1.8-1.7c0-0.9,0.7-1.7,1.8-1.7c1.1,0,1.8,0.8,1.8,1.7C8,7.8,7.3,8.6,6.2,8.6z M20.4,20.4h-3.4V14c0-1.4,0-3.2-1.9-3.2c-1.9,0-2.2,1.5-2.2,3V20.4h-3.4V9.9h3.2v1.6h0C14.4,10,15.8,9.5,17,9.5c4.2,0,4.7,2.8,4.7,6.4L20.4,20.4L20.4,20.4z"/>
  </svg>
